<?xml version="1.0" encoding="utf-8"?>
<!-- Generator: Adobe Illustrator 17.1.0, SVG Export Plug-In . SVG Version: 6.00 Build 0)  -->
<!DOCTYPE svg PUBLIC "-//W3C//DTD SVG 1.1//EN" "http://www.w3.org/Graphics/SVG/1.1/DTD/svg11.dtd">
<svg version="1.1" id="Layer_1" xmlns="http://www.w3.org/2000/svg" xmlns:xlink="http://www.w3.org/1999/xlink" x="0px" y="0px"
	 viewBox="0 0 960 560" enable-background="new 0 0 960 560" xml:space="preserve">
<g>
	<g>
		<path fill="#D8A66B" d="M197.9,196.2c-46.3,0-83.9,37.6-83.9,83.9c0,46.3,37.6,83.9,83.9,83.9c46.3,0,83.9-37.6,83.9-83.9
			C281.8,233.8,244.3,196.2,197.9,196.2z M197.9,351.6c-39.5,0-71.5-32-71.5-71.5s32-71.5,71.5-71.5s71.5,32,71.5,71.5
			S237.4,351.6,197.9,351.6z"/>
		<path fill="#D8A66B" d="M197.9,217.3c-34.7,0-62.8,28.1-62.8,62.8c0,34.7,28.1,62.8,62.8,62.8c34.7,0,62.8-28.1,62.8-62.8
			C260.7,245.4,232.6,217.3,197.9,217.3z"/>
	</g>
	<g>
		<path fill="#1E2A51" d="M356.7,289.3h-7.9v20h-15.4v-59.6h29.8c13.2,0,20.7,8.8,20.7,19.8c0,10.4-6.3,15.9-11.9,17.9l12.1,21.9
			h-17.6L356.7,289.3z M361,263.2h-12.1v12.8H361c4,0,7.4-2.2,7.4-6.4C368.4,265.5,365,263.2,361,263.2z"/>
		<path fill="#1E2A51" d="M394.7,249.8h43.7v13.4h-28.3v9.3h27.7v13.4h-27.7v10.1h28.3v13.4h-43.7V249.8z"/>
		<path fill="#1E2A51" d="M443.2,249.8h17.4l14.6,42.9l14.7-42.9h17.4l-22.5,59.6h-19.3L443.2,249.8z"/>
		<path fill="#1E2A51" d="M547.6,300.8h-23.5l-2.9,8.6h-17.4l22.4-59.6h19.3l22.5,59.6h-17.4L547.6,300.8z M528.2,287.4h15.2
			l-7.6-22.4L528.2,287.4z"/>
		<path fill="#1E2A51" d="M574.6,249.8h15.4v46.2h23.9v13.4h-39.3V249.8z"/>
		<path fill="#1E2A51" d="M622.1,249.8h15.6v34.9c0,7.1,4.2,12.1,12.6,12.1c8.2,0,12.5-5.1,12.5-12.1v-34.9h15.5v35.4
			c0,14.8-9,25.3-28,25.3c-19.2,0-28.2-10.5-28.2-25.2V249.8z"/>
		<path fill="#1E2A51" d="M725.5,300.8H702l-2.9,8.6h-17.4l22.4-59.6h19.3l22.5,59.6h-17.4L725.5,300.8z M706.1,287.4h15.2
			l-7.6-22.4L706.1,287.4z"/>
		<path fill="#1E2A51" d="M760.3,263.2h-16.7v-13.4h48.7v13.4h-16.6v46.2h-15.4V263.2z"/>
		<path fill="#1E2A51" d="M801.8,249.8h43.7v13.4h-28.3v9.3h27.7v13.4h-27.7v10.1h28.3v13.4h-43.7V249.8z"/>
	</g>
</g>
</svg>
