<?xml version="1.0" encoding="utf-8"?>
<!-- Generator: Adobe Illustrator 17.1.0, SVG Export Plug-In . SVG Version: 6.00 Build 0)  -->
<!DOCTYPE svg PUBLIC "-//W3C//DTD SVG 1.1//EN" "http://www.w3.org/Graphics/SVG/1.1/DTD/svg11.dtd">
<svg version="1.1" id="Layer_1" xmlns="http://www.w3.org/2000/svg" xmlns:xlink="http://www.w3.org/1999/xlink" x="0px" y="0px"
	 viewBox="0 0 960 560" enable-background="new 0 0 960 560" xml:space="preserve">
<g>
	<path fill="#D8A66B" d="M195.2,216.7c-46.3,0-83.9,37.6-83.9,83.9c0,46.3,37.6,83.9,83.9,83.9c46.3,0,83.9-37.6,83.9-83.9
		C279.1,254.3,241.5,216.7,195.2,216.7z M195.2,372.1c-39.5,0-71.5-32-71.5-71.5s32-71.5,71.5-71.5s71.5,32,71.5,71.5
		S234.7,372.1,195.2,372.1z"/>
	<path fill="#D8A66B" d="M195.2,237.9c-34.7,0-62.8,28.1-62.8,62.8c0,34.7,28.1,62.8,62.8,62.8c34.7,0,62.8-28.1,62.8-62.8
		C258,266,229.9,237.9,195.2,237.9z"/>
</g>
<g>
	<path fill="#FFFFFF" d="M354,309.9h-7.9v20h-15.4v-59.6h29.8c13.2,0,20.7,8.8,20.7,19.8c0,10.4-6.3,15.9-11.9,17.9l12.1,21.9H364
		L354,309.9z M358.2,283.7h-12.1v12.8h12.1c4,0,7.4-2.2,7.4-6.4C365.7,286,362.3,283.7,358.2,283.7z"/>
	<path fill="#FFFFFF" d="M392,270.3h43.7v13.4h-28.3v9.3H435v13.4h-27.7v10.1h28.3v13.4H392V270.3z"/>
	<path fill="#FFFFFF" d="M440.5,270.3h17.4l14.6,42.9l14.7-42.9h17.4l-22.5,59.6h-19.3L440.5,270.3z"/>
	<path fill="#FFFFFF" d="M544.9,321.3h-23.5l-2.9,8.6H501l22.4-59.6h19.3l22.5,59.6h-17.4L544.9,321.3z M525.5,307.9h15.2l-7.6-22.4
		L525.5,307.9z"/>
	<path fill="#FFFFFF" d="M571.9,270.3h15.4v46.2h23.9v13.4h-39.3V270.3z"/>
	<path fill="#FFFFFF" d="M619.4,270.3H635v34.9c0,7.1,4.2,12.1,12.6,12.1c8.2,0,12.5-5.1,12.5-12.1v-34.9h15.5v35.4
		c0,14.8-9,25.3-28,25.3c-19.2,0-28.2-10.5-28.2-25.2V270.3z"/>
	<path fill="#FFFFFF" d="M722.8,321.3h-23.5l-2.9,8.6h-17.4l22.4-59.6h19.3l22.5,59.6h-17.4L722.8,321.3z M703.4,307.9h15.2
		l-7.6-22.4L703.4,307.9z"/>
	<path fill="#FFFFFF" d="M757.5,283.7h-16.7v-13.4h48.7v13.4h-16.6v46.2h-15.4V283.7z"/>
	<path fill="#FFFFFF" d="M799,270.3h43.7v13.4h-28.3v9.3h27.7v13.4h-27.7v10.1h28.3v13.4H799V270.3z"/>
</g>
</svg>
