<?xml version="1.0" encoding="UTF-8" standalone="no"?>
<svg width="64px" height="64px" viewBox="0 0 64 64" version="1.1" xmlns="http://www.w3.org/2000/svg" xmlns:xlink="http://www.w3.org/1999/xlink" xmlns:sketch="http://www.bohemiancoding.com/sketch/ns">
    <!-- Generator: Sketch 3.1 (8751) - http://www.bohemiancoding.com/sketch -->
    <title>social-23</title>
    <desc>Created with Sketch.</desc>
    <defs>
        <path id="path-1" d="M32.497,28.25 C32.237,29.346 31.097,30.455 30,30.686 C21.334,32.438 12.667,32.438 4,30.686 C2.904,30.456 1.763,29.346 1.502,28.25 C-0.334,20.25 -0.334,12.25 1.502,4.25 C1.762,3.152 2.903,2.043 4,1.814 C12.667,0.06 21.333,0.06 30,1.814 C31.097,2.043 32.237,3.152 32.497,4.25 C34.334,12.25 34.334,20.25 32.497,28.25 L32.497,28.25 Z"></path>
    </defs>
    <g id="Page-1" stroke="none" stroke-width="1" fill="none" fill-rule="evenodd" sketch:type="MSPage">
        <g id="social-23" sketch:type="MSLayerGroup" transform="translate(-218.000000, -409.000000)">
            <g id="circles" transform="translate(218.000000, 409.000000)" fill="#82AD4E" sketch:type="MSShapeGroup">
                <circle id="Oval" cx="32" cy="32" r="32"></circle>
            </g>
            <g id="social" transform="translate(233.000000, 425.000000)">
                <path d="M32.497,28.25 C32.237,29.346 31.097,30.455 30,30.686 C21.334,32.438 12.667,32.438 4,30.686 C2.904,30.456 1.763,29.346 1.502,28.25 C-0.334,20.25 -0.334,12.25 1.502,4.25 C1.762,3.152 2.903,2.043 4,1.814 C12.667,0.06 21.333,0.06 30,1.814 C31.097,2.043 32.237,3.152 32.497,4.25 C34.334,12.25 34.334,20.25 32.497,28.25 L32.497,28.25 Z" id="Shape" fill="#F5F5E6" sketch:type="MSShapeGroup"></path>
                <g id="Clipped">
                    <mask id="mask-2" sketch:name="SVGID_21_" fill="white">
                        <use xlink:href="#path-1"></use>
                    </mask>
                    <g id="SVGID_21_"></g>
                    <rect id="Rectangle-path" fill="#F5BB3D" sketch:type="MSShapeGroup" mask="url(#mask-2)" x="-1" y="0" width="37" height="10.002"></rect>
                </g>
                <circle id="Oval" fill="#589DA8" sketch:type="MSShapeGroup" cx="8" cy="17" r="2"></circle>
                <circle id="Oval" fill="#589DA8" sketch:type="MSShapeGroup" cx="8" cy="23" r="2"></circle>
                <circle id="Oval" fill="#589DA8" sketch:type="MSShapeGroup" cx="14" cy="17" r="2"></circle>
                <circle id="Oval" fill="#589DA8" sketch:type="MSShapeGroup" cx="14" cy="23" r="2"></circle>
                <circle id="Oval" fill="#589DA8" sketch:type="MSShapeGroup" cx="20" cy="17" r="2"></circle>
                <circle id="Oval" fill="#589DA8" sketch:type="MSShapeGroup" cx="20" cy="23" r="2"></circle>
                <circle id="Oval" fill="#DE6724" sketch:type="MSShapeGroup" cx="26" cy="17" r="2"></circle>
                <circle id="Oval" fill="#DE6724" sketch:type="MSShapeGroup" cx="26" cy="23" r="2"></circle>
                <path d="M12.5,7 C11.671,7 11,6.328 11,5.5 C11,4.672 11.671,4 12.5,4 L21.5,4 C22.328,4 23,4.672 23,5.5 C23,6.328 22.328,7 21.5,7 L12.5,7 L12.5,7 Z" id="Shape" fill="#4F6366" sketch:type="MSShapeGroup"></path>
            </g>
        </g>
    </g>
</svg>