<?xml version="1.0" encoding="UTF-8" standalone="no"?>
<svg width="150px" height="150px" viewBox="0 0 150 150" version="1.1" xmlns="http://www.w3.org/2000/svg" xmlns:xlink="http://www.w3.org/1999/xlink" xmlns:sketch="http://www.bohemiancoding.com/sketch/ns">
    <!-- Generator: Sketch 3.1 (8751) - http://www.bohemiancoding.com/sketch -->
    <title>Group</title>
    <desc>Created with Sketch.</desc>
    <defs>
        <path id="path-1" d="M111.321094,103.710937 C110.711719,106.279687 108.039844,108.878906 105.46875,109.420312 C85.1578125,113.526562 64.8445313,113.526562 44.53125,109.420312 C41.9625,108.88125 39.2882813,106.279687 38.6765625,103.710937 C34.3734375,84.9609375 34.3734375,66.2109375 38.6765625,47.4609375 C39.2859375,44.8875 41.9601563,42.2882812 44.53125,41.7515625 C64.8445313,37.640625 85.1554688,37.640625 105.46875,41.7515625 C108.039844,42.2882812 110.711719,44.8875 111.321094,47.4609375 C115.626563,66.2109375 115.626563,84.9609375 111.321094,103.710937 L111.321094,103.710937 L111.321094,103.710937 Z"></path>
    </defs>
    <g id="Page-1" stroke="none" stroke-width="1" fill="none" fill-rule="evenodd" sketch:type="MSPage">
        <g id="Landing-Page" sketch:type="MSArtboardGroup" transform="translate(-243.000000, -3088.000000)">
            <g id="Group" sketch:type="MSLayerGroup" transform="translate(243.000000, 3088.000000)">
                <circle id="Oval" fill="#E8E8E8" sketch:type="MSShapeGroup" cx="75" cy="75" r="75"></circle>
                <path d="M111.321094,103.710937 C110.711719,106.279687 108.039844,108.878906 105.46875,109.420312 C85.1578125,113.526562 64.8445313,113.526562 44.53125,109.420312 C41.9625,108.88125 39.2882813,106.279687 38.6765625,103.710937 C34.3734375,84.9609375 34.3734375,66.2109375 38.6765625,47.4609375 C39.2859375,44.8875 41.9601563,42.2882812 44.53125,41.7515625 C64.8445313,37.640625 85.1554688,37.640625 105.46875,41.7515625 C108.039844,42.2882812 110.711719,44.8875 111.321094,47.4609375 C115.626563,66.2109375 115.626563,84.9609375 111.321094,103.710937 L111.321094,103.710937 L111.321094,103.710937 Z" id="Shape" fill="#F5F5E6" sketch:type="MSShapeGroup"></path>
                <path d="M111.321094,103.710937 C110.711719,106.279687 108.039844,108.878906 105.46875,109.420312 C85.1578125,113.526562 64.8445313,113.526562 44.53125,109.420312 C41.9625,108.88125 39.2882813,106.279687 38.6765625,103.710937 C34.3734375,84.9609375 34.3734375,66.2109375 38.6765625,47.4609375 C39.2859375,44.8875 41.9601563,42.2882812 44.53125,41.7515625 C64.8445313,37.640625 85.1554688,37.640625 105.46875,41.7515625 C108.039844,42.2882812 110.711719,44.8875 111.321094,47.4609375 C115.626563,66.2109375 115.626563,84.9609375 111.321094,103.710937 L111.321094,103.710937 L111.321094,103.710937 Z" id="path-1" fill="#FFFFFF" sketch:type="MSShapeGroup"></path>
                <mask id="mask-2" sketch:name="path-1" fill="white">
                    <use xlink:href="#path-1"></use>
                </mask>
                <g id="path-1"></g>
                <rect id="Rectangle-path" fill="#03C9A9" sketch:type="MSShapeGroup" mask="url(#mask-2)" x="32.8125" y="37.5" width="86.71875" height="23.4421875"></rect>
                <circle id="Oval" fill="#D9D9D9" sketch:type="MSShapeGroup" mask="url(#mask-2)" cx="53.90625" cy="77.34375" r="4.6875"></circle>
                <circle id="Oval" fill="#D9D9D9" sketch:type="MSShapeGroup" mask="url(#mask-2)" cx="53.90625" cy="91.40625" r="4.6875"></circle>
                <circle id="Oval" fill="#D9D9D9" sketch:type="MSShapeGroup" mask="url(#mask-2)" cx="67.96875" cy="77.34375" r="4.6875"></circle>
                <circle id="Oval" fill="#D9D9D9" sketch:type="MSShapeGroup" mask="url(#mask-2)" cx="67.96875" cy="91.40625" r="4.6875"></circle>
                <circle id="Oval" fill="#D9D9D9" sketch:type="MSShapeGroup" mask="url(#mask-2)" cx="82.03125" cy="77.34375" r="4.6875"></circle>
                <circle id="Oval" fill="#D9D9D9" sketch:type="MSShapeGroup" mask="url(#mask-2)" cx="82.03125" cy="91.40625" r="4.6875"></circle>
                <circle id="Oval" fill="#9B9B9B" sketch:type="MSShapeGroup" mask="url(#mask-2)" cx="96.09375" cy="77.34375" r="4.6875"></circle>
                <circle id="Oval" fill="#9B9B9B" sketch:type="MSShapeGroup" mask="url(#mask-2)" cx="96.09375" cy="91.40625" r="4.6875"></circle>
                <path d="M64.453125,53.90625 C62.5101563,53.90625 60.9375,52.33125 60.9375,50.390625 C60.9375,48.45 62.5101563,46.875 64.453125,46.875 L85.546875,46.875 C87.4875,46.875 89.0625,48.45 89.0625,50.390625 C89.0625,52.33125 87.4875,53.90625 85.546875,53.90625 L64.453125,53.90625 L64.453125,53.90625 Z" id="Shape" fill="#154161" sketch:type="MSShapeGroup" mask="url(#mask-2)"></path>
            </g>
        </g>
    </g>
</svg>