<?xml version="1.0" encoding="UTF-8" standalone="no"?>
<svg width="150px" height="150px" viewBox="0 0 150 150" version="1.1" xmlns="http://www.w3.org/2000/svg" xmlns:xlink="http://www.w3.org/1999/xlink" xmlns:sketch="http://www.bohemiancoding.com/sketch/ns">
    <!-- Generator: Sketch 3.1 (8751) - http://www.bohemiancoding.com/sketch -->
    <title>circles + communications</title>
    <desc>Created with Sketch.</desc>
    <defs></defs>
    <g id="Page-1" stroke="none" stroke-width="1" fill="none" fill-rule="evenodd" sketch:type="MSPage">
        <g id="Landing-Page" sketch:type="MSArtboardGroup" transform="translate(-684.000000, -3088.000000)">
            <g id="circles-+-communications" sketch:type="MSLayerGroup" transform="translate(684.000000, 3088.000000)">
                <g id="circles" fill="#E8E8E8" sketch:type="MSShapeGroup">
                    <circle id="Oval" cx="75" cy="75" r="75"></circle>
                </g>
                <g id="communications" transform="translate(24.781250, 37.500000)" sketch:type="MSShapeGroup">
                    <g id="Shape-+-Shape">
                        <path d="M101.907813,20.475 L77.846875,0.78984375 C77.1460938,0.215625 76.178125,0.0984375 75.3578125,0.48515625 C74.5398438,0.87421875 74.0195313,1.69921875 74.0195313,2.60390625 L74.0195313,11.7445312 L40.4617188,17.2804687 C39.3296875,17.465625 38.5,18.4429687 38.5,19.5914062 L38.5,24.9890625 C38.5,26.1375 39.3296875,27.1148437 40.4617188,27.3023437 L74.0195313,32.8382812 L74.0195313,41.9789062 C74.0195313,42.8835937 74.5421875,43.7085937 75.3601563,44.0976562 C76.178125,44.484375 77.1460938,44.3671875 77.8492188,43.7929687 L101.910156,24.1054687 C102.451563,23.6601562 102.767969,22.9945312 102.767969,22.2914062 C102.767969,21.5882812 102.451563,20.9203125 101.907813,20.475 L101.907813,20.475 Z" id="Shape" fill="#B6B6B6"></path>
                        <path d="M62.3195312,43.059375 L28.7617187,37.5234375 L28.7617187,28.3828125 C28.7617187,27.478125 28.2390625,26.653125 27.4210937,26.2640625 C26.603125,25.8773438 25.6351562,25.9945313 24.9320312,26.56875 L0.87109375,46.25625 C0.3296875,46.7015625 0.01328125,47.3671875 0.01328125,48.0703125 C0.01328125,48.7734375 0.3296875,49.4390625 0.8734375,49.884375 L24.934375,69.5695313 C25.6351562,70.14375 26.603125,70.2609375 27.4234375,69.8742188 C28.2414062,69.4851563 28.7617187,68.6601563 28.7617187,67.7554688 L28.7617187,58.6148438 L62.3195312,53.0789063 C63.4515625,52.8960938 64.28125,51.9164063 64.28125,50.7703125 L64.28125,45.3726563 C64.28125,44.2242188 63.4515625,43.246875 62.3195312,43.059375 L62.3195312,43.059375 Z" id="Shape" fill="#EE8687"></path>
                    </g>
                </g>
            </g>
        </g>
    </g>
</svg>