<?xml version="1.0" encoding="UTF-8" standalone="no"?>
<svg width="150px" height="150px" viewBox="0 0 150 150" version="1.1" xmlns="http://www.w3.org/2000/svg" xmlns:xlink="http://www.w3.org/1999/xlink" xmlns:sketch="http://www.bohemiancoding.com/sketch/ns">
    <!-- Generator: Sketch 3.1 (8751) - http://www.bohemiancoding.com/sketch -->
    <title>circles + mix</title>
    <desc>Created with Sketch.</desc>
    <defs></defs>
    <g id="Page-1" stroke="none" stroke-width="1" fill="none" fill-rule="evenodd" sketch:type="MSPage">
        <g id="Landing-Page" sketch:type="MSArtboardGroup" transform="translate(-684.000000, -3504.000000)">
            <g id="circles-+-mix" sketch:type="MSLayerGroup" transform="translate(684.000000, 3504.000000)">
                <g id="circles" fill="#E8E8E8" sketch:type="MSShapeGroup">
                    <circle id="Oval" cx="75" cy="75" r="75"></circle>
                </g>
                <g id="mix" transform="translate(25.781250, 35.156250)" sketch:type="MSShapeGroup">
                    <path d="M77.34375,67.96875 L21.09375,67.96875 C19.59375,51.7851562 18.2109375,36.39375 17.0367188,21.9585937 C16.584375,16.4109375 19.209375,11.0414062 23.8664063,7.996875 C39.2226563,-2.0390625 59.2171875,-2.0390625 74.5734375,7.996875 C79.2351563,11.04375 81.8554688,16.4039062 81.403125,21.9585937 C80.2265625,36.39375 78.84375,51.7851562 77.34375,67.96875 L77.34375,67.96875 Z" id="Shape" fill="#03A58B"></path>
                    <g id="Group" transform="translate(0.000000, 28.125000)" fill="#03C9A9">
                        <rect id="Rectangle-path" x="11.71875" y="14.0625" width="14.0625" height="23.4375"></rect>
                        <rect id="Rectangle-path" x="72.65625" y="14.0625" width="14.0625" height="23.4375"></rect>
                        <g>
                            <circle id="Oval" cx="85.546875" cy="12.890625" r="12.890625"></circle>
                            <circle id="Oval" cx="12.890625" cy="12.890625" r="12.890625"></circle>
                            <rect id="Rectangle-path" x="11.71875" y="23.4375" width="75" height="18.75"></rect>
                            <path d="M28.125,49.21875 L11.71875,49.21875 L11.71875,42.1875 L32.8125,42.1875 L28.125,49.21875 Z" id="Shape"></path>
                            <path d="M70.3125,49.21875 L86.71875,49.21875 L86.71875,42.1875 L65.625,42.1875 L70.3125,49.21875 Z" id="Shape"></path>
                        </g>
                    </g>
                </g>
            </g>
        </g>
    </g>
</svg>