<?xml version="1.0" encoding="UTF-8" standalone="no"?>
<svg width="150px" height="150px" viewBox="0 0 150 150" version="1.1" xmlns="http://www.w3.org/2000/svg" xmlns:xlink="http://www.w3.org/1999/xlink" xmlns:sketch="http://www.bohemiancoding.com/sketch/ns">
    <!-- Generator: Sketch 3.1 (8751) - http://www.bohemiancoding.com/sketch -->
    <title>circles + social</title>
    <desc>Created with Sketch.</desc>
    <defs></defs>
    <g id="Page-1" stroke="none" stroke-width="1" fill="none" fill-rule="evenodd" sketch:type="MSPage">
        <g id="Landing-Page" sketch:type="MSArtboardGroup" transform="translate(-1125.000000, -3504.000000)">
            <g id="circles-+-social" sketch:type="MSLayerGroup" transform="translate(1125.000000, 3504.000000)">
                <g id="circles" fill="#E8E8E8" sketch:type="MSShapeGroup">
                    <circle id="Oval" cx="75" cy="75" r="75"></circle>
                </g>
                <g id="social" transform="translate(42.187500, 28.125000)" sketch:type="MSShapeGroup">
                    <path d="M53.90625,44.53125 L16.40625,44.53125 L16.40625,18.75 C16.40625,8.3953125 24.8015625,0 35.15625,0 C45.5109375,0 53.90625,8.3953125 53.90625,18.75 L53.90625,44.53125 L53.90625,44.53125 Z M44.53125,35.15625 L44.53125,18.75 C44.53125,13.5796875 40.3265625,9.375 35.15625,9.375 C29.9859375,9.375 25.78125,13.5796875 25.78125,18.75 L25.78125,35.15625 L44.53125,35.15625 L44.53125,35.15625 Z" id="Shape" fill="#9B9B9B"></path>
                    <path d="M67.2304687,77.484375 C66.3960937,80.0273438 63.4945312,82.03125 60.9375,82.03125 L9.375,82.03125 C6.8203125,82.03125 3.8578125,80.0226563 3.009375,77.4773438 C-0.96796875,65.2078125 -0.96796875,51.9820313 3.009375,39.7125 C3.8578125,37.1671875 6.8203125,35.15625 9.375,35.15625 L60.9375,35.15625 C63.4945312,35.15625 66.3960937,37.1601562 67.2304687,39.703125 C71.2898437,51.9867187 71.2898437,65.2007813 67.2304687,77.484375 L67.2304687,77.484375 Z" id="Shape" fill="#EE8687"></path>
                    <circle id="Oval" fill="#FFFFFF" cx="35.15625" cy="53.90625" r="7.03125"></circle>
                    <path d="M39.2578125,69.140625 C39.2578125,71.08125 37.4226562,72.65625 35.15625,72.65625 C32.8898438,72.65625 31.0546875,71.08125 31.0546875,69.140625 L31.0546875,58.59375 L39.2578125,58.59375 L39.2578125,69.140625 L39.2578125,69.140625 Z" id="Shape" fill="#FFFFFF"></path>
                </g>
            </g>
        </g>
    </g>
</svg>