<?xml version="1.0" encoding="UTF-8" standalone="no"?>
<svg width="150px" height="150px" viewBox="0 0 150 150" version="1.1" xmlns="http://www.w3.org/2000/svg" xmlns:xlink="http://www.w3.org/1999/xlink" xmlns:sketch="http://www.bohemiancoding.com/sketch/ns">
    <!-- Generator: Sketch 3.1 (8751) - http://www.bohemiancoding.com/sketch -->
    <title>circles + mix</title>
    <desc>Created with Sketch.</desc>
    <defs></defs>
    <g id="Page-1" stroke="none" stroke-width="1" fill="none" fill-rule="evenodd" sketch:type="MSPage">
        <g id="Landing-Page" sketch:type="MSArtboardGroup" transform="translate(-243.000000, -3504.000000)">
            <g id="circles-+-mix" sketch:type="MSLayerGroup" transform="translate(243.000000, 3504.000000)">
                <g id="circles" fill="#E8E8E8" sketch:type="MSShapeGroup">
                    <circle id="Oval" cx="75" cy="75" r="75"></circle>
                </g>
                <g id="mix" transform="translate(25.781250, 30.468750)">
                    <rect id="Rectangle-path" fill="#C2C1C3" sketch:type="MSShapeGroup" x="44.53125" y="39.84375" width="21.09375" height="39.84375"></rect>
                    <rect id="Rectangle-path" fill="#967FA8" sketch:type="MSShapeGroup" x="21.09375" y="39.84375" width="35.15625" height="39.84375"></rect>
                    <path d="M100.78125,77.34375 C100.78125,78.6398437 99.7335937,79.6875 98.4375,79.6875 L65.625,79.6875 L65.625,39.84375 L98.4375,39.84375 C99.7335937,39.84375 100.78125,40.89375 100.78125,42.1875 L100.78125,77.34375 L100.78125,77.34375 Z" id="Shape" fill="#967FA8" sketch:type="MSShapeGroup"></path>
                    <path d="M21.09375,79.6875 L2.34375,79.6875 C1.05,79.6875 0,78.6398437 0,77.34375 L0,42.1875 C0,40.89375 1.05,39.84375 2.34375,39.84375 L21.09375,39.84375 L21.09375,79.6875 L21.09375,79.6875 Z" id="Shape" fill="#C2C1C3" sketch:type="MSShapeGroup"></path>
                    <path d="M77.34375,39.84375 L42.1875,39.84375 L42.1875,0 L75,0 C76.2960937,0 77.34375,1.05 77.34375,2.34375 L77.34375,39.84375 L77.34375,39.84375 Z" id="Shape" fill="#967FA8" sketch:type="MSShapeGroup"></path>
                    <path d="M42.1875,39.84375 L21.09375,39.84375 L21.09375,2.34375 C21.09375,1.05 22.14375,0 23.4375,0 L42.1875,0 L42.1875,39.84375 L42.1875,39.84375 Z" id="Shape" fill="#C2C1C3" sketch:type="MSShapeGroup"></path>
                    <text id="A" stroke="#FFFFFF" stroke-width="0.5" fill="#FFFFFF" sketch:type="MSTextLayer" font-family="Helvetica" font-size="27.4285714" font-weight="normal">
                        <tspan x="28.125" y="70.53125">A</tspan>
                    </text>
                    <text id="B" stroke="#FFFFFF" stroke-width="0.5" fill="#FFFFFF" sketch:type="MSTextLayer" font-family="Helvetica" font-size="27.4285714" font-weight="normal">
                        <tspan x="75" y="70.53125">B</tspan>
                    </text>
                    <text id="C" stroke="#FFFFFF" stroke-width="0.5" fill="#FFFFFF" sketch:type="MSTextLayer" font-family="Helvetica" font-size="27.4285714" font-weight="normal">
                        <tspan x="49.21875" y="30.6875">C</tspan>
                    </text>
                </g>
            </g>
        </g>
    </g>
</svg>