<?xml version="1.0" encoding="UTF-8" standalone="no"?>
<svg width="150px" height="150px" viewBox="0 0 150 150" version="1.1" xmlns="http://www.w3.org/2000/svg" xmlns:xlink="http://www.w3.org/1999/xlink" xmlns:sketch="http://www.bohemiancoding.com/sketch/ns">
    <!-- Generator: Sketch 3.1 (8751) - http://www.bohemiancoding.com/sketch -->
    <title>circles + ecommerce</title>
    <desc>Created with Sketch.</desc>
    <defs></defs>
    <g id="Page-1" stroke="none" stroke-width="1" fill="none" fill-rule="evenodd" sketch:type="MSPage">
        <g id="Landing-Page" sketch:type="MSArtboardGroup" transform="translate(-1125.000000, -3088.000000)">
            <g id="circles-+-ecommerce" sketch:type="MSLayerGroup" transform="translate(1125.000000, 3088.000000)">
                <g id="circles" fill="#E8E8E8" sketch:type="MSShapeGroup">
                    <circle id="Oval" cx="75" cy="75" r="75"></circle>
                </g>
                <g id="ecommerce" transform="translate(29.468750, 42.187500)" sketch:type="MSShapeGroup">
                    <g id="Group">
                        <path d="M5.865625,20.1117188 C10.5648437,23.98125 16.6046875,24.6304688 20.5984375,22.0828125 L25.7640625,26.3835938 C26.1695312,26.71875 26.528125,27.0984375 26.8492187,27.50625 C27.4914062,26.6648438 28.2015625,25.8726563 29.0382812,25.1835938 L30.8265625,23.709375 L23.9429687,18.0234375 C25.684375,13.6171875 23.89375,7.809375 19.1992187,3.9375 C13.6140625,-0.6703125 6.10234375,-0.78515625 2.42734375,3.68203125 C-1.25234375,8.15390625 0.28515625,15.5015625 5.865625,20.1117188 L5.865625,20.1117188 Z M5.4578125,6.18515625 C7.75,3.3984375 12.7867187,3.74765625 16.6960937,6.97265625 C20.6007812,10.1929688 21.9109375,15.0585938 19.6023437,17.85 C17.3078125,20.6414063 12.2734375,20.2898438 8.3546875,17.0789063 C4.45703125,13.8539063 3.15625,8.9859375 5.4578125,6.18515625 L5.4578125,6.18515625 Z" id="Shape" fill="#36AAFB"></path>
                        <path d="M37.1734375,42.5742188 L53.1601563,55.7507813 C55.2859375,57.5085938 58.0257813,58.340625 60.7703125,58.0804688 C63.5171875,57.8132813 66.04375,56.4679688 67.796875,54.3398438 C67.8296875,54.3 67.8460938,54.2835938 67.8460938,54.2835938 L45.4210938,35.7632813 L37.1734375,42.5742188 L37.1734375,42.5742188 Z" id="Shape" fill="#36AAFB"></path>
                        <path d="M67.8460937,12.4570313 C67.8460937,12.4570313 67.8296875,12.4359375 67.796875,12.3984375 C64.1429687,7.96640625 57.5921875,7.33359375 53.1625,10.9851563 L32.1859375,28.2726563 C30.04375,30.0398438 28.6914062,32.5804688 28.421875,35.34375 L28.421875,35.3625 C28.2296875,37.3125 27.2757812,39.1125 25.7640625,40.3570313 L20.5984375,44.6578125 C16.6046875,42.1101563 10.5648437,42.759375 5.865625,46.63125 C0.28515625,51.2390625 -1.25234375,58.5890625 2.42734375,63.0585938 C6.10234375,67.51875 13.6140625,67.40625 19.1992187,62.8007813 C23.89375,58.9289063 25.684375,53.1234375 23.940625,48.7148438 L67.8460937,12.4570313 L67.8460937,12.4570313 Z M16.6960937,59.765625 C12.7867187,62.9929688 7.75,63.3421875 5.4578125,60.553125 C3.15625,57.7523438 4.4546875,52.8867188 8.3546875,49.6640625 C12.2734375,46.4507813 17.3078125,46.0992188 19.6023437,48.8929688 C21.9109375,51.684375 20.6007812,56.5476563 16.6960937,59.765625 L16.6960937,59.765625 Z" id="Shape" fill="#3296DC"></path>
                    </g>
                    <circle id="Oval" fill="#B6B6B6" cx="33.8125" cy="32.8125" r="2.34375"></circle>
                    <rect id="Rectangle-path" fill="#D9D9D9" x="50.21875" y="30.46875" width="11.71875" height="4.6875"></rect>
                    <rect id="Rectangle-path" fill="#D9D9D9" x="66.625" y="30.46875" width="11.71875" height="4.6875"></rect>
                    <rect id="Rectangle-path" fill="#D9D9D9" x="83.03125" y="30.46875" width="11.71875" height="4.6875"></rect>
                </g>
            </g>
        </g>
    </g>
</svg>